<?xml version="1.0" encoding="UTF-8"?>
<svg id="Camada_1" data-name="Camada 1" xmlns="http://www.w3.org/2000/svg" viewBox="0 0 2289.89 661.25">
  <defs>
    <style>
      .cls-1 {
        fill: #fff;
      }
    </style>
  </defs>
  <path class="cls-1" d="M494.77,179.53c7.04,.39,13.72,.2,20.59,.24,23.59,.11,47.45,.1,71.58-.03,25.32-.15,47.16-13.68,63.49-33.03,.42-.49,.51-1.19,.24-1.77-6.33-13.73-9.51-29.08-9.54-46.03-.03-16.43,3.48-31.75,10.53-45.97,14.58-29.41,43.34-46.58,75.7-51.39,11.35-1.69,22.71-1.98,34.1-.87,3.63,.35,7.14,.47,10.54,1.16,1.59,.33,3.22,.66,4.89,1.01,13.57,2.82,25.53,7.55,35.89,14.2,15.95,10.23,27.59,23.89,34.91,40.96,10.01,23.36,10.41,51.05,3.28,74.88-1.95,6.54-4.57,12.66-7.85,18.37-18.82,32.77-53.97,47.4-90.66,48.37-38.08,1-74.66-11.96-96.07-44.44-.09-.14-.3-.11-.35,.04l-13.79,39.99c-.09,.26-.33,.44-.61,.44-50.85,.05-101.57,.04-152.17-.04-1.27,0-2.58-.03-3.94-.1-.67-.03-1.2-.56-1.25-1.23-1.57-21.8,2.98-43.75,15.62-61.31,8.51-11.84,20.37-20.73,33.6-27.6,7.32-3.8,14.38-6.94,21.19-9.43,11.89-4.35,23.75-8.86,35.59-13.55,8.09-3.2,15.16-7.39,21.21-12.57,12.95-11.08,13.96-30.7,3.77-43.73-5.93-7.58-15.66-12.75-25.22-15.01-13.83-3.27-27.5-3.28-40.99-.01-15.45,3.74-27.31,13.33-30.37,29.5-1.25,6.59-1.25,13.35,0,20.28,1.18,6.51,3.01,13.32,5.49,20.41,.43,1.23-.39,2.55-1.69,2.69l-.63,.07c-1.71,.19-2.95-.48-3.74-2.01l-25.93-50.75c-.15-.3-.12-.65,.07-.92,.9-1.26,1.92-2.4,3.07-3.41,12.46-11.05,26.88-18.7,43.27-22.95,12.13-3.15,23.99-4.44,35.56-3.85,16.61,.84,31.9,5.32,45.85,13.44,11,6.4,21.71,16.78,25.3,29.18,1.31,4.49,1.72,9.36,1.23,14.61-.71,7.67-2.62,14.36-5.74,20.07-7.08,12.94-18.81,22.26-31.6,29.59-5.87,3.37-11.68,6.33-17.44,8.88-12.61,5.61-25.66,11.19-39.15,16.74-6.93,2.85-14.52,6.47-22.77,10.84-15.54,8.23-29.26,18.88-35.41,35.51-.09,.25,.08,.52,.35,.53ZM699.34,29.93c-10.51,10.71-18.03,25.95-21.34,40.94-4.19,18.95-4.32,37.66-.41,56.13,6.81,32.22,28.53,58.06,61.97,63.08,32.99,4.94,62.12-15.55,74.5-44.95,7.73-18.35,9.69-38.49,7.92-58.28-2.7-30.09-16.87-59.33-45.38-72.15-26.74-12.03-56.74-5.68-77.26,15.23Z"/>
  <path class="cls-1" d="M853.02,179.58c4.26,.17,8.52,.24,12.79,.21,4.44-.03,8.7-.05,12.78-.06,9.02-.03,18.22,0,27.6,.09,13.83,.14,27.73,.07,41.71-.2,19.02-.37,38.84-10.67,52.06-23.98,2.83-2.84,5.6-5.8,8.33-8.89,2-2.27,3.61-4.62,4.84-7.07,.64-1.27,1.66-1.79,3.05-1.54,.47,.09,.93,.18,1.4,.27,1.39,.29,1.86,1.1,1.39,2.45l-18.67,54.23c-.12,.35-.45,.59-.83,.58-4.55-.09-9.71-.12-15.47-.11-44.27,.1-90.84,.13-139.71,.08-2.33,0-2.36-2.31-2.4-4-.19-8.13,.31-15.82,1.5-23.07,2.77-16.92,9.66-31.29,20.67-43.1,2.39-2.56,5.51-5.4,9.35-8.51,6.8-5.51,14.44-9.98,22.07-13.6,14.78-7,30.16-12.3,45.55-18.02,9.68-3.6,20.02-8.27,27.93-15,6.81-5.79,10.5-12.99,11.07-21.6,.72-10.73-2.85-19.68-10.72-26.86-5.73-5.23-13.02-8.88-21.88-10.94-11.31-2.63-22.88-2.99-34.69-1.07-15.79,2.56-29.75,10.43-34.76,25.87-2.28,7.01-2.99,15.61-1.52,23.3,.79,4.1,1.1,8.02,2.46,12.08,1.17,3.46,2.24,6.81,3.21,10.05,.15,.49,.1,.97-.13,1.42-.78,1.53-2.28,2-4.49,1.39-.35-.1-.6-.31-.76-.63l-26.35-51.69c-.24-.46-.23-1.01,.02-1.47,.47-.84,1.1-1.62,1.9-2.34,6.63-5.91,13.16-10.61,19.6-14.1,15.33-8.31,31.97-12.84,49.91-13.6,23.47-1,48.85,5.54,66.69,20.95,8.81,7.61,15.86,18.54,16.18,30.25,.7,26.16-16.03,43.56-37.62,55.72-8.87,5-17.56,9.26-26.05,12.77-12.53,5.18-25.09,10.51-37.68,16-9.22,4.01-18.09,8.8-26.62,14.35-10.8,7.04-20.28,16.65-24.16,28.75-.13,.41,.02,.62,.45,.64Z"/>
  <path class="cls-1" d="M1355.19,114.06V53.84c-.01-.29,.22-.52,.51-.52l26.24,.03c.32,0,.48,.16,.48,.49l-.1,87.85c0,.47-.24,.7-.71,.7l-33.07,.03c-1.05,0-2.05-.45-2.75-1.23l-61.84-69.36c-.07-.08-.2-.03-.2,.08v69.91c0,.34-.27,.61-.6,.61-8.21,.04-16.21,0-23.98-.11-1.31-.02-2.47-.46-3.73-.46-7.53-.02-15.02-.03-22.49-.04-.52,0-1-.29-1.23-.76l-8.48-17c-.21-.42-.64-.69-1.12-.69h-54.45c-.48-.01-.9,.29-1.05,.74-.35,1.05-.79,2.08-1.31,3.07-2.5,4.77-4.95,9.59-7.34,14.46-.07,.13-.2,.21-.34,.21l-28.97-.06c-.57,0-.72-.25-.46-.75l1.93-3.72c.25-.49,.11-.71-.44-.67l-2.88,.2c-.5,.03-.75,.3-.75,.8-.03,6.19-.02,12.33,.05,18.41,.08,7.43-.9,16.32,1.05,23.27,.91,3.25,2.79,5.68,5.65,7.29,2.62,1.48,5.96,2.58,9.01,3.03,5.17,.75,10.24,1.14,15.19,1.16,1.73,0,2.61,.88,2.62,2.62v.37c0,1.26-.61,1.89-1.88,1.88l-95.55-.05c-1.51,0-2.26-.76-2.23-2.28v-.49c.03-.94,.77-1.69,1.7-1.74,6.47-.3,12.31-.93,17.5-1.89,1.84-.34,3.83-1.01,5.97-2,7.63-3.55,8.04-11.46,8.04-19.41,0-10.16-.02-20.32-.07-30.47,0-.49-.25-.74-.75-.74l-104.14,.07c-1.37,0-2.11-.68-2.2-2.05-.14-2.07-.69-6.01,.97-7.63,41.17-40.19,82.15-80.32,122.96-120.39,2.32-2.27,3.8-3.34,7.33-3.31,2.29,.02,4.53,.05,6.74,.1,1.06,.02,1.91,.88,1.91,1.94l.06,121.5c0,.24,.2,.44,.45,.44h8.73c.25,0,.48-.13,.6-.35l39.34-73.22c.12-.22,.35-.36,.6-.36h37.8c.72,.01,1.38,.41,1.73,1.04l41.02,76.16c.34,.64,.51,.6,.51-.13l-.04-76.58c0-.27,.22-.49,.49-.49h42.54c1.32-.01,2.57,.57,3.43,1.58l50.97,59.51c.69,.8,1.03,.67,1.03-.38Zm-262.07-75.53c0-.31-.37-.47-.59-.25l-90.4,88.36c-.22,.22-.07,.6,.25,.6l90.42,.1c.19,0,.35-.16,.35-.35l-.03-88.46Zm83.26,66.32c-.12,.23,.05,.49,.3,.49h36.66c.25,0,.42-.26,.3-.49l-18.33-36.09c-.12-.25-.48-.25-.6,0l-18.33,36.09Z"/>
  <path class="cls-1" d="M1508.06,115.7c-6.91,19.31-26.26,26.24-45.62,28-11.75,1.07-23.05,.86-33.92-.65-4.5-.63-8.95-1.63-13.35-3-16.67-5.23-27.8-17.14-29.19-35.12-.43-5.61-.37-10.92,.2-15.93,2.68-23.75,22.16-33.87,44.17-36.52,10.91-1.31,21.63-1.46,32.18-.44,13.1,1.26,27.09,4.94,36.49,13.83,2.05,1.93,4.01,4.41,5.89,7.43,6.54,10.5,6.37,24.68,4.76,36.55-.26,1.95-.95,4-1.61,5.85Zm-84.9-39.68c-9.83,6.18-11.62,16.47-10.1,27.83,1.76,13.26,12.98,19.85,25.76,20.44,6.36,.29,12.48,.32,18.36,.08,6.31-.25,11.85-1.99,16.61-5.2,9.32-6.3,10.22-15.2,9.58-25.77-.45-7.47-3.87-13.29-10.27-17.47-3.48-2.27-8.13-3.78-13.94-4.51-.19-.02-3.49-.1-9.92-.24-9.35-.21-18.25-.07-26.08,4.84Z"/>
  <path class="cls-1" d="M1719.04,89.34l82.03,.02c.18,0,.32,.14,.32,.32l.03,16.45c0,.18-.14,.32-.32,.32l-82.03-.09c-.18,0-.32,.14-.32,.32l.03,17.4c0,.18,.14,.32,.32,.32l81.98,.02c.18,0,.32,.14,.32,.32l-.12,17.3c0,.18-.14,.32-.32,.32h-108.88c-.18,0-.32-.14-.32-.32V53.65c-.01-.18,.13-.32,.31-.32l108.86,.07c.18,0,.32,.14,.32,.32l.09,17.33c0,.18-.14,.32-.32,.32l-81.95,.02c-.18,0-.32,.14-.32,.32l-.03,17.31c0,.18,.14,.32,.32,.32Z"/>
  <path class="cls-1" d="M1684.92,118.22c-3.84,7.98-9.29,14.08-16.36,18.3-6.39,3.82-13.82,5.73-22.27,5.72-28.01-.03-55.17,0-81.49,.04-.43,0-.78-.32-.83-.75-.09-.86-.13-1.69-.14-2.5-.07-30.19-.1-58.58-.07-85.16,0-.38,.19-.57,.57-.57,26.76,.1,53.32,.1,79.69,0,12.54-.05,23.23,2.74,32.13,11.72,6.09,6.13,10.02,13.13,11.79,20.99,2.42,10.76,1.69,22.43-3.02,32.22Zm-94.21-44.12v47.32c0,.55,.44,.99,.99,.99h47.86c12.49,0,22.61-10.23,22.61-22.85v-3.6c0-12.62-10.12-22.85-22.61-22.85h-47.86c-.55,0-.99,.44-.99,.99Z"/>
  <path class="cls-1" d="M692.28,444c-.08,3.05-.12,6.01-.12,8.89-.01,27.35,.02,53.36,.07,78.03,0,3.88,.26,9.02,.77,15.42,.55,6.82,1.91,13.43,4.1,19.82,2.41,7.03,7.47,11.23,15.18,12.59,6.42,1.13,13.17,.61,18.7-3.03,6.18-4.08,9.32-13.1,9.99-20.16,.73-7.62,.99-15.29,.79-23.02-.04-1.47,.24-2.91,.22-4.39-.13-13.35-.11-27.82,.04-43.41,0-.15,.12-.27,.27-.27l104.17,.02c.57,0,.86,.28,.88,.84,.65,19.32,.17,38.84-1.46,58.56-.53,6.42-1.76,12.8-2.84,19.19-2.21,12.97-5.86,25.38-10.94,37.21-4.41,10.29-11.16,20.99-18.95,28.98-17.46,17.87-41.53,26.52-66.22,29.8-17.07,2.27-33.79,2.77-50.14,1.5-11.74-.91-22.94-2.9-33.59-5.99-10.67-3.09-20.54-7.82-29.63-14.21-32.37-22.75-42.89-64.48-46.39-101.41-.39-4.09-.65-8-.79-11.75-.39-11.03-.51-20.01-.34-26.94,.05-2.03,.05-4.12,0-6.27-.19-7.2,.12-14.38,.08-21.65-.24-46.19,.08-92.04-.11-138.25-.09-20.54,2.7-40.98,10.61-59.95,10.23-24.54,30.12-44.05,55.07-54.71,15.45-6.6,32.36-10.57,50.75-11.9,19.33-1.39,37.55-.52,54.68,2.62,19.52,3.57,38.57,11.1,53.26,23.49,6.95,5.86,12.88,12.63,17.79,20.32,5.53,8.65,9.8,18.19,12.8,28.62,4.19,14.57,6.33,30.01,6.42,46.31,.09,17.56,.13,35.61,.1,54.16-.03,19.88-.83,39.77-1.13,59.63,0,.53-.44,.96-.98,.97l-152.86,.11c-.13,0-.24,.1-.24,.23Zm-.7-75.92c.05,7.49,.04,15.01-.05,22.56-.01,.27,.21,.49,.48,.48,6.31-.21,13.05-.28,20.21-.23,11.37,.09,21.15,.12,29.33,.09,.27,0,.4-.13,.4-.4-.05-18.11-.04-36.33,.02-54.67,.03-7.71-.48-15.17-1.58-22.73-1.04-7.15-2.93-13.03-5.68-17.62-2.78-4.64-6.41-7.6-10.9-8.89-5.42-1.56-10.95-.93-16.6,1.89-7.58,3.78-12.02,14.37-13.55,22.3-1.18,6.11-1.81,11.86-1.9,17.25-.21,12.99-.27,26.32-.18,39.97Z"/>
  <path class="cls-1" d="M1337.02,399.55c.17,.17,.31,.15,.41-.07,5.16-11.14,10.47-21.93,15.93-32.37,.47-.9,1.14-1.67,1.61-2.59,5.77-11.27,12.78-23.27,21.01-36,13.09-20.24,27-38.18,41.71-53.83,16.25-17.28,34.71-32.36,55.36-43.53,16.59-8.97,35.95-14.94,54.93-14,7.33,.36,15.66,2,22.48,5.09,14.54,6.59,24.37,17.41,29.48,32.48,7.42,21.86,2.17,46.73-8.28,67.59-2.33,4.67-5.68,10.51-10.03,17.54-12.05,19.47-24.36,39.25-36.93,59.34-1.48,2.35-2.68,4.82-4.27,7.05-.59,.84-1.19,1.74-1.78,2.69-8.45,13.59-16.42,26.51-23.89,38.75-2.71,4.43-5.22,8.42-7.53,11.98-5.03,7.72-9.58,15.56-14.5,23.2-5.4,8.39-10.69,16.87-15.7,25.31-1.45,2.44-3.23,4.55-4.42,7.09-1.06,2.27-2.62,4.19-3.96,6.34-11.17,17.92-21.97,35.26-32.38,52.02-15.38,24.77-30.84,49.59-46.37,74.46-.21,.34-.52,.51-.93,.51l-18.49,.03c-.43,0-.7-.46-.49-.84,7.13-12.74,13.51-26.84,16.61-40.79,4.73-21.27,3.8-42.11-2.79-62.5-3.22-9.98-7.99-20.31-13.34-29.49-12.84-22.03-29.47-42.64-46.71-61.69-16.39-18.1-32.81-36.22-49.28-54.36-15.04-16.57-29.42-34.01-43.13-52.32-4.09-5.46-8-11.06-11.74-16.8-7.79-11.95-15.28-24.52-22.47-37.7-3.79-6.94-8.17-13.85-13.13-20.72-4.85-6.71-10.67-11.85-17.47-15.42-6.08-3.19-14.19-5.21-21.15-6.16-9.55-1.3-18.73-1.42-28.2-1.72-.37,0-.55-.2-.55-.57l-.03-3.4c0-.35,.17-.52,.51-.52,21.38-.02,42.81-.02,64.29,0,5.12,0,10.04,.29,15.05,.07,2.11-.09,4.23-.13,6.38-.12,20.94,.07,41.9,.06,62.89-.01,1.87-.01,3.71,.4,5.56,.22,3.33-.33,6.92-.39,10.78-.2,3.59,.17,7.23,.22,10.92,.14,6.33-.14,12.55-.09,18.65,.14,.63,.03,.99,.36,1.06,.99l.31,2.67c.07,.6-.2,.89-.8,.87-8.73-.25-16.96,.18-24.7,1.31-6.67,.97-12.33,2.67-16.99,5.1-2.99,1.56-7.13,5.27-7.97,8.66-2.24,9.13,2.9,19.02,7.54,26.77,6.46,10.8,12.92,21.83,19.79,31.6,19.85,28.2,42.34,52.82,67.14,77.71Zm8.63,1.26c-.72,1.52-1.48,3.06-2.28,4.63-.25,.5-.15,1.1,.24,1.49,11.75,11.93,22.5,23.53,32.24,34.8,12.99,15.04,24.45,31.05,32.46,48.79,1.98,4.39,3.63,8.92,4.95,13.58,1.49,5.28,2.49,9.97,2.99,14.08,1.28,10.38,.84,20.73-1.31,31.06-.14,.69-.03,.74,.34,.14,40.49-65.07,81.48-130.97,122.95-197.69,2.15-3.45,4.12-7.07,5.93-10.84,4.42-9.22,7.87-18.63,9.14-28.57,.83-6.46,.84-12.11,.05-16.95-4.77-29.29-32.84-39.14-59.22-35.39-25.36,3.6-48.53,16.86-68.11,32.87-13.37,10.93-25.9,23.92-37.61,38.96-16.99,21.83-31.25,44.84-42.76,69.04Z"/>
  <path class="cls-1" d="M1610.47,324.34c-12.77-13.33-14.34-36.1-10.56-52.5,1.88-8.17,6.63-17.09,13.03-22.8,12.04-10.74,26.67-13.83,42.46-13.92,15.42-.09,30.05,3.12,40.93,12.71,14.48,12.75,17.15,33.55,14.01,52.26-3.66,21.82-19.29,35.57-40.97,39.02-6.87,1.09-13.57,1.44-20.08,1.04-15.21-.94-28.04-4.54-38.82-15.81Z"/>
  <path class="cls-1" d="M2159.24,442.64c11.45,25.71,23.37,51.19,35.76,76.43,1.82,3.7,4.98,9.37,7.29,14.15,1.14,2.37,2.09,4.26,2.85,5.68,11.08,20.77,22.15,41.15,33.22,61.14,1.35,2.45,2.78,4.78,4.28,6.99,2.03,3.01,3.88,6.22,6.06,9.12,7.47,9.94,15.83,19.16,25.08,27.67,1.36,1.26,.79,3.52-1,3.98-.93,.23-2.03,.33-3.28,.28-6.87-.24-13.47-.31-19.8-.21-1.81,.03-3.64,.04-5.5,.03-17.79-.1-35.63-.1-53.51-.01-.48,.01-.92-.24-1.16-.65-2.35-4.02-3.96-8.4-6.01-12.62-2.79-5.75-5.59-11.65-8.4-17.7-28.29-60.9-51.54-112.36-76.59-168.75-.22-.52-.74-.85-1.31-.85l-236.51,.52c-.49,.01-.91,.35-1,.82-6.69,32.58-12.99,62.55-18.9,89.91-1.19,5.53-2.29,10.78-3.29,15.75-2.71,13.45-5.29,26.21-7.74,38.29-.49,2.42-.9,5.42-1.23,9.01-.9,9.87-.26,18.69,7.55,25.82,3.04,2.77,6.39,5.11,10.04,7.02,7.24,3.77,14.68,7.02,22.33,9.73,.18,.07,.27,.19,.28,.38,.2,3.75-2.44,3.28-5.47,3.27-37.89-.07-74.75-.09-110.58-.04-2.65,.01-6.14,.07-10.49,.2-3.85,.11-7.36,.18-10.53,.2-50.97,.23-104.61,.26-160.92,.11-.23-.01-.42-.2-.41-.43l.14-9.09c.01-.36,.3-.65,.66-.64l29.59,.15c.4,0,.73-.33,.73-.74l-.04-247.48c0-.28-.22-.51-.5-.51h-32.04c-.42-.01-.77-.36-.76-.78l.12-8.95c0-.31,.15-.46,.46-.46h137.27c.32,.01,.48,.17,.48,.5v257.69c-.01,.3,.22,.54,.51,.55,6.72,.36,15.2,.8,21.72-1.8,6.73-2.68,12.6-5.66,17.63-8.94,9.45-6.16,15.77-15.02,18.97-26.59,.91-3.29,1.69-6.36,2.35-9.22,3.03-13.15,5.87-25.95,8.51-38.41,1.65-7.81,3.32-15.74,5.02-23.78,15.74-74.48,31.51-148.99,47.32-223.53,1.78-8.4,2.97-15.82,3.57-22.25,1.03-10.96-2.93-19.54-11.86-25.75-8.94-6.21-18.52-9.85-28.41-13.73-.35-.14-.55-.4-.58-.77-.05-.67,.04-1.32,.25-1.95,.16-.49,.5-.74,1.02-.75,7.01-.13,14.75-.18,23.22-.15,18.33,.07,34.89,.1,49.69,.09,40.53-.02,82.47-.03,125.81-.03,1.52,.01,3.02,.01,4.5,0,55.09-.04,111.39-.04,168.9,0,5.39,0,10.83,.52,16.34,.85,14.38,.86,28.38,3.31,42.01,7.34,16.11,4.77,32.57,13.05,44.5,24.92,12.64,12.57,19.95,27.64,21.93,45.19,2.13,18.78-2.48,38.7-12.68,55.06-6.22,9.97-14.27,19.04-24.16,27.21-4.61,3.81-9.16,7.17-13.67,10.09-23.22,15.06-51.19,25.09-79.31,30.82-.36,.07-.47,.28-.32,.61Zm-12.17-187.91c-84.21-.07-165.88-.07-244.99,0-.8,0-1.28,.39-1.45,1.18l-37.6,176.72c-.15,.71,.14,1.07,.86,1.08,10.61,.17,20.62-.29,31.37-.02,4.33,.11,8.59,.08,12.76-.09,2.94-.12,5.79,.23,8.68,.16,1.71-.04,3.38-.06,5-.05,38.47,.07,75.88,.05,112.25-.07,17.79-.06,36.03-.01,54.73,.15,8.06,.07,16.04-.14,24.08-.04,6.32,.08,12.86-.3,19.08-1.02,62.56-7.27,105.05-61.3,94.33-123.98-1.63-9.55-5.05-18.16-10.24-25.82-11.08-16.36-30.81-25.46-50.16-27.2-1.9-.17-3.75-.41-5.55-.73-3.24-.57-6.14-.1-9.38-.22-.98-.03-2.24-.05-3.77-.05Z"/>
  <path class="cls-1" d="M1057.75,450.79c-.37,.08-.57,.48-.41,.82,4.06,8.44,7.69,16.95,11.49,25.02,2.43,5.19,4.8,10.28,7.11,15.27,11.88,25.77,24.94,51.78,39.19,78.02,6.89,12.68,14.06,25.76,21.53,39.23,8.39,15.14,19.95,29.39,34.67,42.74,.52,.47,.73,1.05,.62,1.74l-.31,2.11c-.06,.44-.32,.66-.77,.66-26.73-.01-53.88-.03-81.46-.04-1.56,0-2.07-.68-2.73-2.07-25.45-53.91-51.27-110.47-77.47-169.7-3.99-9.03-8.08-18.14-12.27-27.33-.34-.75-1.1-1.23-1.93-1.22l-33.82,.6c-.33,0-.54,.17-.61,.5-9.73,46.44-19.35,92.63-28.88,138.58-.98,4.75-1.74,9.81-2.27,15.2-1.2,12.24,1.31,21.57,11.77,28.42,8.6,5.63,18.24,9.48,27.71,13.27,.57,.23,.76,.63,.55,1.22l-.62,1.78c-.17,.51-.53,.76-1.06,.76h-160.67c-.41,0-.59-.2-.54-.61l.29-2.07c.06-.47,.31-.77,.76-.91,12.95-4.18,26.79-9.01,38.42-16.05,7.69-4.67,13.24-10.72,16.65-18.15,2.38-5.2,4.28-10.94,5.7-17.23,3.85-17.02,7.68-34.69,11.49-53.01,.9-4.33,1.85-8.8,2.85-13.4,.35-1.6,.64-3.17,.88-4.71,.34-2.12,1.04-4.07,1.44-6.18,.73-3.91,1.54-7.89,2.41-11.93,2.41-11.13,4.67-21.59,6.8-31.36,.29-1.37,.58-2.76,.85-4.18,1.16-6.11,2.4-12.2,3.71-18.27,6.53-30.2,13.33-61.94,20.38-95.22,1.62-7.65,3.25-15.38,4.9-23.17,1.45-6.88,2.84-13.4,4.18-19.56,1.88-8.65,3.4-17.42,4.56-26.3,.51-3.91,.18-7.96-.97-12.15-1.29-4.67-3.84-8.59-7.67-11.76-8.8-7.31-19.49-11.7-31.01-15.74-.4-.14-.72-.46-.86-.87-.52-1.58,.17-3.5,2.22-3.32,.32,.03,.65,.05,.99,.05,56.41,.1,113.06,.14,169.93,.12,6.4,0,14.97,.65,25.72,1.94,22.59,2.72,45.69,9.38,63.97,22.47,20.79,14.88,32.26,36.92,32.25,62.31-.01,15.71-3.88,30.21-11.62,43.48-6.76,11.6-15.85,21.92-27.27,30.96-11.8,9.34-25.19,17.21-40.16,23.6-15.85,6.77-32.72,11.99-50.61,15.64Zm-93.54-8.54c16.31,.18,34.09,.19,53.33,.03,15.86-.13,31.53-3.57,47-10.33,2.97-1.3,5.9-2.78,8.78-4.43,3.25-1.87,6.03-3.64,8.33-5.3,26.15-18.87,40.72-44.51,43.7-76.91,.41-4.46,.33-9.16,.22-13.66-.67-25.92-12.25-48.25-36.34-59.42-4.97-2.31-10.65-4.12-17.04-5.43-6.94-1.43-12.97-2.15-18.09-2.18-16.92-.09-34.24-.1-51.97-.03-.39,0-.62,.19-.7,.56l-37.7,176.51c-.06,.3,.17,.59,.48,.59Z"/>
  <path class="cls-1" d="M229.58,657.18c-18.11-.77-34.23-1.8-48.38-3.08-8.31-.75-17.05-1.74-26.24-2.99-23.11-3.13-45.54-8.18-67.28-15.16-2.26-.73-7-2.59-14.21-5.58-17.03-7.06-31.96-16.72-44.8-28.98-9.79-9.34-17.35-20.79-22.1-34C2.07,554.86-.12,541.34,0,526.81c0-.43,.36-.78,.79-.78l197.39,.02c.48,0,.72,.24,.73,.72,.08,3.02,.33,6.08,.76,9.18,2.29,16.41,12.55,25.27,27.44,30.57,2.59,.92,5.23,1.17,7.84,2,1.01,.32,2.07,.58,3.19,.77,10.01,1.78,21.95,2.84,35.81,3.19,14.42,.36,28.99,.3,43.71-.19,13.68-.45,25.53-2.16,35.54-5.14,8.53-2.53,13.79-8.12,15.79-16.75,2.17-9.35-.5-16.41-8.03-21.18-6.45-4.09-13.95-7.05-22.5-8.88-13.68-2.93-26.87-5.35-39.58-7.28-4.59-.69-9.32-1.37-14.21-2.04-13.14-1.78-26.87-3.7-41.2-5.75-39.27-5.61-74.38-11.93-105.33-18.94-17.05-3.86-34-9.24-50.85-16.13-11.02-4.51-22.02-9.97-33-16.4-2.43-1.42-4.75-3.05-7.15-4.5-5.42-3.3-10.54-7.23-15.36-11.8-15.82-15-24.69-33.78-26.61-56.33-.89-10.45-.38-20.97,1.53-31.56,3.43-18.99,11.81-34.94,25.16-47.86,14.3-13.85,33.16-24.44,51.67-30.44,15.61-5.06,29.18-8.61,40.71-10.66,11.63-2.07,22.98-3.99,34.34-5.09,14.48-1.41,29.44-2.43,44.87-3.07,37.29-1.54,70.37-2.13,99.22-1.76,22.23,.29,45.87,1.25,70.92,2.88,19.07,1.24,36.19,3.11,51.36,5.6,22.43,3.69,42.67,8.85,60.7,15.47,14.91,5.47,28.33,12.83,40.28,22.08,16.76,12.97,29.27,28.87,35.22,49.27,3.33,11.41,4.95,23.42,4.86,36.02,0,.37-.19,.56-.57,.56h-193.45c-.44,0-.66-.22-.65-.66,.1-5.75-.76-11.47-2.57-17.17-5.87-18.44-26.56-24.64-43.69-26.45-18.04-1.9-36.23-2.13-54.36-2.44-10.8-.19-21.7,.46-32.26,1.67-3.98,.46-8.19,1.17-12.64,2.13-4.6,.99-8.27,2.39-11.01,4.2-7.77,5.13-9.42,13.01-9.47,21.91-.01,2.86,.6,5.24,1.84,7.14,4.44,6.81,13.47,10.91,21.76,13.49,4.95,1.53,10.07,2.89,15.38,4.07,21.6,4.81,40.77,8.35,57.52,10.63,9.7,1.32,18.82,2.67,27.36,4.05,18.01,2.91,34.83,5.91,50.48,8.98,23.03,4.52,45.43,9.36,66.19,14.8,10.25,2.69,21.57,6.36,33.97,11.03,16.06,6.03,31.23,13.44,45.5,22.23,5.61,3.45,10.73,7.17,15.36,11.16,16.23,13.99,25.8,31.28,28.69,51.88,.82,5.83,1.14,11.69,.96,17.58-.46,15.13-3.03,29.66-9.39,43.43-3.03,6.55-6.62,12.24-10.78,17.09-7.83,9.1-16.8,16.68-26.91,22.73-11.98,7.17-25.1,12.67-39.36,16.49-16.67,4.47-33.62,7.85-50.85,10.12-3.58,.47-7.01,.84-10.29,1.09-4.57,.35-9.17,1.1-13.78,1.39-21.96,1.38-44.06,2.26-66.3,2.63-6.46,.11-13.12,.23-19.99,.38-31.31,.64-62.35,.3-93.12-1.01Z"/>
</svg>